# xmcd
#
# Track frame offsets: 
#        150
#        12814
#        25470
#        37006
#        52420
#        65782
#        79280
#        89872
#        102190
#        112923
#        124865
#        136547
#        149700
#        161406
#        174131
#        186347
#        199287
#        208770
#        221432
#        234026
#        244460
#        255808
#        267721
#        279400
#        291440
#
# Disc length: 4046 seconds
#
# Revision: 6
# Processed by: cddbd v1.5.2PL0 Copyright (c) Steve Scherf et al.
# Submitted via: ExactAudioCopyFreeDBPlugin 1.0
#
DISCID=820fcc19
DTITLE=Various Artist - Hillbilly Boogie Disc 4)
DYEAR=2002
DGENRE=Hillbilly
TTITLE0=Vance Morris and His Alabama Playboys - Crazy About The Boogie
TTITLE1=Merle Travis - Crazy Boogie
TTITLE2=Bill Mack - Crazy Baby Boogie
TTITLE3=Arthur Smith's Hot Quintet - Guitar Boogie
TTITLE4=The Armstrong Twins - Mandolin Boogie
TTITLE5=Hubert Friar and Hillbilly Hicks - Joe's Mandolin Boogie
TTITLE6=Jesse James and Band - Piano Pete's Boogie
TTITLE7=Arthur Smith's Hot Quintet - Banjo Boogie
TTITLE8=Mustard and Gravy - Be Bop Boogie
TTITLE9=Wayne Raney - Real Hot Boogie
TTITLE10=Don Whitney - Red Hot Boogie
TTITLE11=Tommy Durden and The Westernaires - Hula Boogie
TTITLE12=Tennessee Ernie Ford - The Shotgun Boogie
TTITLE13=Tillman Franks and His Rainbow Boys (Faron Young Vocal) - Hot R
TTITLE13=od Shotgun Boogie #2
TTITLE14=Hawkshaw Hawkins - Doghouse Boogie
TTITLE15=Roy Hall and His Cohutta Mountain Boys (Frankie Brumbalough Voc
TTITLE15=al) - Dirty Boogie
TTITLE16=Roy Hogsed - Snake Dance Boogie
TTITLE17=Hank Snow - Rhumba Boogie
TTITLE18=Bill Nettles and His Dixie Blue Boys - Hadacol Boogie
TTITLE19=Buster Doss and His Arkansas Playboys - Playboy Boogie
TTITLE20=Hardrock Gunter - Hesitation Boogie
TTITLE21=Al Dexter and His Troopers - New Broom Boogie
TTITLE22=Cowboy Copas - Hangman Boogie
TTITLE23=Roy Hall and His Cohutta Mountain Boys - Mule Boogie
TTITLE24=Butterball Paige - I'm Too Old To Boogie Anymore
EXTD=See <http://www.propermusic.com/products.asp?recnumber=71> for de
EXTD=tailed track-list and discography.\nCompiled and annotated by Ada
EXTD=m Komorowski - produced by Joop Visser Productions.\nDigital remas
EXTD=tering by Peter Rynston at Tall Order Mastering.\n4CD: Proper Rec
EXTD=ords PROPERBOX 50 (2002-10/11 - 2005), UPC 805520020503.
EXTT0=
EXTT1=
EXTT2=
EXTT3=
EXTT4=
EXTT5=
EXTT6=
EXTT7=
EXTT8=
EXTT9=
EXTT10=
EXTT11=
EXTT12=
EXTT13=
EXTT14=
EXTT15=
EXTT16=
EXTT17=
EXTT18=
EXTT19=
EXTT20=
EXTT21=
EXTT22=
EXTT23=
EXTT24=
PLAYORDER=
